<svg width="1024" height="1024" viewBox="0 0 1024 1024" xmlns="http://www.w3.org/2000/svg" xmlns:xlink="http://www.w3.org/1999/xlink">
  <defs>
    <linearGradient id="bg" x1="512" y1="0" x2="512" y2="1024" gradientUnits="userSpaceOnUse">
      <stop offset="0" stop-color="#3473BA"/><stop offset="1" stop-color="#102A54"/>
    </linearGradient>
    <radialGradient id="key" cx="0.5" cy="0.04" r="0.95">
      <stop offset="0" stop-color="#74A9E2" stop-opacity="0.50"/><stop offset="0.55" stop-color="#74A9E2" stop-opacity="0"/>
    </radialGradient>
    <radialGradient id="halo" cx="0.5" cy="0.46" r="0.44">
      <stop offset="0" stop-color="#FFFFFF" stop-opacity="0.10"/><stop offset="1" stop-color="#FFFFFF" stop-opacity="0"/>
    </radialGradient>
    <g id="LV"><g transform="translate(0.000000,1600.000000) scale(0.100000,-0.100000)">
      <path d="M8705 15000 c-218 -16 -320 -184 -229 -377 60 -126 203 -236 616
-473 91 -52 133 -84 215 -165 111 -110 131 -143 231 -391 75 -184 152 -282
312 -397 238 -171 253 -189 300 -376 37 -148 71 -211 192 -356 88 -107 168
-255 168 -313 0 -40 -40 -72 -89 -72 -67 0 -200 41 -412 125 -466 187 -668
210 -772 86 -61 -73 -59 -148 6 -218 64 -69 165 -111 437 -178 404 -101 707
-304 907 -611 130 -200 177 -375 190 -699 9 -245 -70 -444 -204 -518 -103 -56
-257 -43 -373 31 -25 16 -125 107 -223 204 -146 144 -189 181 -245 208 -177
87 -313 82 -373 -12 -71 -115 153 -472 454 -727 279 -234 426 -362 439 -383 8
-13 45 -58 81 -101 170 -199 258 -426 261 -672 1 -130 1 -130 -33 -193 -122
-224 -376 -237 -756 -36 -235 124 -408 184 -530 184 -273 0 -368 -299 -165
-523 106 -117 378 -298 630 -419 444 -213 709 -428 830 -673 63 -127 80 -202
81 -357 2 -186 -19 -237 -212 -508 -112 -159 -113 -291 -1 -400 58 -56 85 -71
352 -198 281 -134 510 -336 826 -732 55 -69 215 -269 356 -445 357 -447 570
-665 648 -665 40 0 163 113 180 166 19 55 -14 101 -225 309 -257 254 -339 359
-451 571 -86 163 -96 187 -126 308 -58 233 -24 447 112 713 121 238 136 350
56 429 -74 75 -159 72 -314 -8 -53 -28 -115 -60 -136 -71 -153 -80 -294 9
-418 265 -89 184 -74 528 33 714 83 146 262 271 473 330 143 40 360 121 484
180 390 187 385 492 -8 511 -107 6 -170 -6 -470 -83 -158 -41 -183 -45 -260
-41 -332 18 -451 239 -350 651 115 471 350 794 837 1152 561 414 838 718 851
935 6 101 -8 140 -77 210 -94 95 -163 101 -322 25 -57 -27 -195 -143 -372
-313 -211 -202 -367 -257 -496 -174 -108 70 -157 277 -116 494 78 411 166 614
460 1067 42 63 87 137 101 163 14 27 42 76 63 110 102 167 179 382 201 557 5
47 14 101 20 120 23 82 4 268 -34 324 -88 131 -259 139 -355 17 -62 -78 -118
-250 -155 -476 -76 -457 -114 -608 -177 -701 -121 -178 -291 -178 -381 -1 -34
68 -40 118 -57 462 -17 332 -57 451 -223 656 -74 91 -180 254 -349 534 -173
287 -216 339 -403 488 -130 105 -178 140 -353 260 -72 49 -236 145 -343 200
-41 21 -101 54 -133 73 -148 87 -456 208 -572 226 -16 2 -66 1 -110 -2z"/>
      <path d="M6578 14407 c-74 -28 -161 -115 -230 -232 -100 -169 -141 -280 -248
-685 -93 -352 -166 -541 -265 -685 -228 -330 -229 -335 -230 -545 0 -143 2
-162 28 -245 113 -357 126 -533 48 -666 -35 -60 -61 -155 -61 -222 0 -89 21
-159 96 -319 91 -195 136 -400 105 -481 -14 -37 -62 -77 -91 -77 -85 1 -267
171 -455 425 -260 352 -471 522 -660 533 -253 14 -329 -140 -200 -403 122
-249 417 -570 810 -880 28 -21 86 -71 130 -110 44 -38 125 -110 180 -158 718
-634 1139 -1645 807 -1938 -55 -48 -93 -59 -208 -59 -97 0 -300 47 -383 89
-182 93 -463 173 -616 175 -146 2 -144 -2 -90 185 61 214 66 473 11 556 -55
81 -108 97 -209 65 -65 -21 -79 -31 -144 -98 -125 -129 -187 -276 -252 -592
-17 -80 -37 -176 -45 -215 -103 -477 -265 -616 -459 -394 -91 103 -177 358
-177 521 0 51 -6 103 -14 125 -8 21 -17 58 -21 83 -6 46 -58 141 -177 328
-159 249 -207 432 -229 877 -17 342 -28 384 -174 640 -109 192 -165 356 -240
705 -40 187 -124 455 -164 520 -15 25 -38 72 -51 105 -49 122 -138 205 -237
221 -130 20 -262 -153 -318 -417 -25 -116 -26 -135 -20 -284 4 -88 11 -178 16
-200 31 -131 27 -744 -7 -931 -8 -44 -14 -107 -14 -140 0 -32 -5 -77 -10 -99
-66 -266 9 -541 211 -775 209 -243 221 -270 229 -525 7 -235 12 -252 125 -400
62 -81 210 -263 225 -275 21 -17 132 -167 158 -212 108 -191 23 -308 -186
-254 -97 25 -336 152 -621 331 -185 115 -203 125 -306 158 -312 101 -560 54
-606 -115 -20 -76 24 -202 103 -295 116 -138 297 -236 698 -381 352 -126 410
-147 465 -167 28 -9 82 -30 120 -45 39 -16 95 -36 125 -46 390 -122 861 -371
1160 -613 196 -159 429 -400 494 -511 114 -195 140 -274 141 -425 0 -104 -2
-113 -29 -163 -54 -97 -130 -145 -286 -182 -92 -21 -106 -21 -435 -15 -364 8
-448 2 -551 -36 -73 -27 -128 -80 -143 -137 -41 -150 161 -403 377 -473 20 -7
54 -18 76 -26 62 -22 248 -36 416 -30 159 5 295 24 600 82 96 19 200 37 230
40 30 4 89 15 132 26 42 10 96 19 121 19 25 0 82 8 128 17 128 27 566 24 699
-5 191 -41 347 -121 473 -240 223 -213 145 -437 -268 -773 -66 -53 -163 -132
-215 -174 -259 -210 -345 -335 -357 -512 -6 -91 13 -148 77 -225 99 -119 332
-133 571 -32 135 57 280 139 370 209 46 36 118 92 159 124 41 32 116 96 165
141 428 394 764 561 1125 559 302 0 571 -205 636 -484 69 -296 82 -331 143
-391 139 -139 308 -119 626 75 131 79 257 136 360 160 233 54 275 62 369 71
56 6 139 15 185 22 105 13 747 13 816 0 80 -16 943 -48 963 -36 42 27 52 58
63 183 14 166 9 172 -143 178 -331 11 -561 27 -647 44 -51 10 -104 19 -118 19
-34 0 -271 74 -357 111 -286 126 -415 253 -563 554 -114 234 -112 272 12 245
137 -30 433 -123 585 -184 63 -25 117 -46 121 -46 5 0 46 -18 93 -40 47 -22
87 -40 90 -40 9 0 289 -126 471 -213 486 -230 510 -239 548 -214 34 22 150
263 142 294 -8 33 -34 46 -190 102 -249 87 -443 178 -594 278 -414 273 -549
468 -626 903 -95 540 -121 610 -230 610 -71 0 -130 -49 -277 -232 -168 -210
-195 -228 -346 -228 -275 0 -555 226 -741 596 -90 181 -114 280 -115 474 -1
223 11 272 130 510 238 476 288 646 245 826 -33 134 -97 218 -183 238 -75 18
-173 -38 -314 -179 -103 -102 -100 -99 -283 -390 -164 -264 -302 -388 -444
-402 -272 -25 -563 278 -677 707 -54 203 -60 239 -59 410 0 152 2 174 30 275
16 61 34 128 40 150 14 55 111 245 170 332 27 40 49 75 49 78 0 3 26 42 57 88
290 419 372 589 373 767 0 176 -172 208 -385 71 -134 -87 -260 -225 -364 -402
-102 -175 -223 -317 -296 -350 -91 -42 -201 -12 -287 79 -100 104 -128 192
-131 404 -6 434 128 730 451 999 131 109 401 385 455 464 60 89 111 231 101
282 -25 133 -140 199 -268 154 -171 -60 -326 -208 -449 -429 -131 -234 -180
-304 -287 -413 -114 -117 -137 -129 -238 -129 -91 0 -144 44 -178 148 -29 90
-9 223 80 551 34 122 37 336 7 494 -68 359 -65 470 23 767 14 47 34 147 45
222 11 76 26 148 32 160 9 16 12 68 10 172 -1 82 2 177 8 210 6 34 15 149 21
256 6 107 20 254 30 325 10 72 21 148 24 170 2 22 12 72 20 111 62 282 56 446
-19 594 -60 117 -210 186 -317 147z m-1633 -6784 c84 -229 291 -416 579 -523
97 -37 102 -57 56 -242 -11 -47 -25 -117 -30 -155 -12 -93 -52 -253 -84 -338
-121 -318 -400 -350 -611 -70 -90 120 -113 164 -165 318 -50 146 -50 146 -50
294 0 210 45 379 171 641 55 115 60 122 87 122 26 0 31 -6 47 -47z m1460 -728
c238 -45 289 -56 409 -86 186 -47 346 -112 456 -188 164 -112 346 -308 395
-425 9 -22 15 -68 15 -118 0 -110 -24 -162 -114 -246 -106 -99 -224 -146 -581
-233 -244 -59 -378 -121 -475 -220 -130 -134 -157 -288 -69 -384 83 -90 170
-129 377 -170 189 -38 266 -33 491 31 126 36 172 28 158 -28 -39 -159 -77
-236 -162 -324 -89 -93 -128 -108 -295 -108 -135 -1 -135 -1 -227 45 -50 26
-122 67 -160 93 -75 51 -264 235 -297 290 -78 129 -133 215 -152 239 -51 61
-137 273 -175 427 -39 159 -6 646 66 980 25 119 47 254 54 334 6 70 10 81 36
103 32 28 34 28 250 -12z m2185 -1720 c259 -61 445 -206 558 -435 47 -95 47
-95 53 -335 5 -232 6 -242 31 -296 36 -77 72 -116 137 -148 81 -40 210 -71
299 -71 96 0 107 -18 93 -163 -20 -225 -95 -300 -321 -320 -178 -16 -368 33
-595 154 -316 168 -498 369 -600 664 -34 99 -43 271 -24 470 6 72 14 200 16
287 5 208 5 208 172 208 68 0 143 -7 181 -15z"/>
    </g></g>
    <g id="MD">
      <path d="M1262.7,1270.6 1242.4,1262.1 1222.1,1253.6 1201.7,1245.2 1197.1,1243.4 1191.8,1241.2 1186.2,1238.8 1180.2,1236.1 1169.3,1231.4 1157.7,1226.1 1145.4,1220.2 1132.2,1213.8 1118.3,1206.8 1104.4,1199.5 1090.5,1191.9 1076.5,1184.1 1062.6,1176.0 1048.7,1167.6 1034.8,1159.0 1020.8,1150.0 1006.9,1140.8 992.9,1131.2 979.0,1121.3 965.1,1111.1 951.1,1100.5 937.2,1089.5 923.3,1078.1 909.4,1066.3 895.5,1054.0 881.7,1041.3 868.0,1028.2 854.4,1014.7 841.1,1000.9 828.1,986.8 815.3,972.4 803.1,957.9 791.2,943.4 779.9,928.9 769.2,914.5 759.0,900.2 749.3,886.1 740.2,872.0 731.6,858.0 723.4,844.1 715.7,830.3 708.4,816.6 701.5,802.8 694.9,788.8 688.7,774.8 682.7,760.8 677.1,746.9 671.8,732.9 666.8,718.9 662.0,704.9 657.6,690.9 653.4,676.9 649.5,663.0 645.9,649.1 642.6,635.2 639.5,621.3 636.7,607.5 634.1,593.6 631.8,579.7 629.7,565.8 627.9,551.9 626.4,538.0 625.0,524.2 624.0,510.3 623.1,496.4 622.5,482.4 622.1,468.5 622.0,454.6 622.1,440.7 622.4,426.8 623.0,412.8 623.8,398.9 624.7,385.8 625.7,373.4 626.8,361.8 627.9,351.0 628.4,345.0 629.0,339.3 629.6,334.1 630.2,329.5 630.2,329.5 630.0,327.7 629.3,326.1 627.9,325.0 626.3,324.4 624.5,324.5 622.9,325.3 621.8,326.7 621.2,328.3 621.2,328.3 620.6,332.9 619.9,338.3 619.2,344.0 618.5,350.0 617.3,360.9 616.1,372.6 615.0,385.0 614.0,398.3 613.1,412.3 612.4,426.4 612.0,440.5 611.8,454.6 611.8,468.7 612.1,482.8 612.6,496.9 613.4,510.9 614.4,525.0 615.6,539.1 617.1,553.2 618.8,567.3 620.8,581.4 623.0,595.5 625.5,609.6 628.3,623.7 631.3,637.8 634.6,651.9 638.2,666.0 642.0,680.2 646.2,694.4 650.6,708.6 655.3,722.8 660.3,737.1 665.6,751.3 671.2,765.6 677.1,779.8 683.4,794.0 690.0,808.3 697.0,822.4 704.3,836.5 712.1,850.6 720.3,864.8 729.0,879.0 738.2,893.4 747.9,907.9 758.2,922.5 769.0,937.1 780.4,951.9 792.4,966.8 804.8,981.6 817.6,996.2 830.8,1010.6 844.2,1024.7 857.9,1038.5 871.8,1051.9 885.7,1064.8 899.7,1077.3 913.8,1089.4 927.9,1101.1 941.9,1112.3 956.0,1123.1 970.1,1133.6 984.2,1143.7 998.2,1153.5 1012.3,1163.0 1026.4,1172.1 1040.5,1181.0 1054.5,1189.6 1068.6,1197.9 1082.7,1205.9 1096.7,1213.7 1110.9,1221.2 1124.9,1228.4 1138.2,1235.0 1150.7,1241.0 1162.4,1246.5 1173.3,1251.4 1179.4,1254.2 1185.2,1256.8 1190.6,1259.1 1195.2,1261.0 1215.4,1269.5 1235.7,1278.1 1255.9,1286.6 1255.9,1286.6 1259.3,1287.3 1262.6,1286.7 1265.4,1284.8 1267.4,1282.0 1268.0,1278.6 1267.4,1275.3 1265.5,1272.5 1262.7,1270.6 Z"/>
      <path d="M1242.1,1325.6 1220.1,1324.5 1198.2,1323.4 1176.2,1322.4 1171.5,1322.2 1166.3,1322.0 1160.6,1321.7 1154.6,1321.3 1143.7,1320.6 1132.1,1319.7 1119.7,1318.7 1106.6,1317.5 1092.6,1316.1 1078.7,1314.6 1064.7,1312.8 1050.8,1310.9 1036.8,1308.8 1022.8,1306.5 1008.9,1304.1 994.9,1301.5 980.9,1298.7 966.9,1295.8 953.0,1292.6 939.0,1289.4 925.1,1285.9 911.2,1282.3 897.2,1278.5 883.3,1274.5 869.4,1270.3 855.4,1265.9 841.5,1261.3 827.6,1256.4 813.6,1251.3 799.7,1246.0 785.8,1240.5 771.8,1234.7 757.9,1228.7 744.0,1222.4 730.1,1215.8 716.1,1208.9 702.2,1201.8 688.3,1194.4 674.4,1186.6 660.4,1178.5 646.5,1170.0 632.6,1161.2 618.7,1152.0 604.7,1142.4 590.8,1132.4 576.9,1121.9 563.0,1110.9 549.1,1099.5 535.3,1087.5 521.5,1075.1 507.9,1062.2 494.4,1049.0 481.2,1035.4 468.3,1021.5 455.8,1007.4 443.7,993.2 432.1,978.9 420.9,964.6 410.3,950.4 400.2,936.2 390.5,922.1 381.3,908.0 372.6,894.0 364.3,880.1 356.3,866.2 348.7,852.2 341.5,838.3 334.5,824.4 327.9,810.5 321.6,796.6 315.5,782.7 309.8,768.8 304.3,754.8 299.1,740.9 294.2,727.0 289.5,713.1 285.2,699.9 281.4,687.5 277.9,675.9 274.8,665.1 273.0,659.1 271.4,653.4 269.9,648.1 268.7,643.4 268.7,643.4 267.9,641.9 266.6,640.7 265.0,640.1 263.2,640.2 261.6,641.0 260.5,642.3 259.9,644.0 260.0,645.7 260.0,645.7 261.2,650.4 262.6,655.8 264.2,661.6 265.9,667.6 269.0,678.5 272.4,690.2 276.3,702.7 280.5,716.0 285.2,730.1 290.1,744.2 295.3,758.3 300.8,772.4 306.6,786.4 312.6,800.5 319.0,814.6 325.6,828.7 332.6,842.8 339.9,856.9 347.6,871.0 355.5,885.2 363.9,899.3 372.7,913.5 382.0,927.8 391.7,942.1 401.9,956.5 412.6,970.9 423.9,985.4 435.6,999.9 447.8,1014.3 460.5,1028.6 473.5,1042.7 486.8,1056.5 500.4,1070.0 514.1,1083.1 528.0,1095.7 542.0,1107.8 556.1,1119.5 570.1,1130.7 584.2,1141.3 598.3,1151.6 612.4,1161.3 626.5,1170.7 640.5,1179.7 654.6,1188.3 668.7,1196.5 682.8,1204.4 696.8,1212.0 710.9,1219.3 725.0,1226.3 739.1,1233.0 753.1,1239.4 767.2,1245.6 781.3,1251.5 795.4,1257.1 809.4,1262.6 823.5,1267.7 837.6,1272.7 851.7,1277.4 865.7,1281.9 879.8,1286.2 893.9,1290.3 907.9,1294.2 922.0,1297.9 936.1,1301.5 950.2,1304.9 964.3,1308.0 978.4,1311.1 992.5,1313.9 1006.6,1316.6 1020.7,1319.2 1034.8,1321.5 1048.9,1323.6 1063.0,1325.6 1077.1,1327.5 1091.2,1329.1 1105.3,1330.6 1118.6,1331.8 1131.1,1332.9 1142.8,1333.8 1153.7,1334.6 1159.7,1335.0 1165.5,1335.4 1170.9,1335.7 1175.5,1335.9 1197.5,1337.0 1219.4,1338.2 1241.4,1339.3 1241.4,1339.3 1244.1,1338.9 1246.4,1337.6 1247.9,1335.4 1248.6,1332.8 1248.2,1330.2 1246.8,1327.9 1244.7,1326.3 1242.1,1325.6 Z"/>
      <path d="M1280.5,1232.2 1266.7,1215.1 1253.0,1197.9 1239.2,1180.8 1235.4,1176.2 1231.1,1171.0 1226.6,1165.4 1222.0,1159.5 1213.6,1148.7 1204.9,1137.3 1195.9,1125.0 1186.6,1112.0 1177.1,1098.2 1168.0,1084.4 1159.5,1070.7 1151.5,1057.0 1144.0,1043.2 1137.0,1029.5 1130.6,1015.8 1124.6,1002.1 1119.2,988.4 1114.3,974.7 1110.0,961.0 1106.1,947.3 1102.7,933.6 1099.8,919.9 1097.4,906.2 1095.4,892.5 1093.7,878.7 1092.5,865.0 1091.7,851.2 1091.1,837.4 1090.9,823.5 1091.0,809.7 1091.3,795.8 1091.8,781.9 1092.5,768.0 1093.4,754.1 1094.5,740.2 1095.6,726.2 1096.9,712.3 1098.2,698.3 1099.6,684.3 1100.9,670.3 1102.3,656.3 1103.6,642.2 1104.8,628.2 1105.9,614.1 1106.9,600.1 1107.8,586.0 1108.5,571.9 1109.0,557.8 1109.2,543.6 1109.2,529.5 1109.0,515.4 1108.5,501.3 1107.6,487.1 1106.4,473.0 1104.9,458.8 1103.0,444.6 1100.6,430.5 1097.8,416.3 1094.6,402.1 1090.8,388.0 1086.4,373.8 1081.5,359.7 1075.9,345.5 1069.7,331.3 1062.7,317.2 1055.0,303.0 1046.6,289.0 1038.1,275.7 1029.7,263.3 1021.3,251.7 1013.0,240.9 1008.5,234.9 1003.9,229.2 999.4,223.9 995.5,219.4 995.5,219.4 994.1,218.3 992.4,217.8 990.7,218.0 989.2,218.9 988.1,220.3 987.6,221.9 987.8,223.7 988.6,225.2 988.6,225.2 992.4,229.8 996.6,235.0 1000.9,240.7 1005.3,246.7 1013.4,257.4 1021.5,269.0 1029.7,281.3 1037.8,294.3 1046.0,308.2 1053.3,322.0 1059.9,335.8 1065.8,349.6 1071.1,363.4 1075.8,377.2 1079.8,391.1 1083.4,404.9 1086.4,418.7 1089.0,432.5 1091.1,446.4 1092.9,460.2 1094.2,474.1 1095.2,487.9 1095.9,501.8 1096.3,515.7 1096.3,529.6 1096.2,543.4 1095.8,557.3 1095.1,571.2 1094.3,585.2 1093.3,599.1 1092.2,613.0 1090.9,626.9 1089.5,640.9 1088.1,654.9 1086.6,668.8 1085.0,682.8 1083.5,696.8 1082.1,710.8 1080.6,724.8 1079.3,738.9 1078.1,753.0 1077.0,767.0 1076.1,781.1 1075.4,795.2 1075.0,809.4 1074.8,823.5 1074.8,837.7 1075.2,851.9 1075.9,866.1 1077.0,880.3 1078.5,894.6 1080.5,908.9 1082.9,923.1 1085.7,937.4 1089.1,951.7 1093.0,966.0 1097.4,980.3 1102.3,994.7 1107.8,1009.0 1113.8,1023.3 1120.4,1037.6 1127.5,1051.8 1135.1,1066.1 1143.2,1080.4 1151.9,1094.7 1161.0,1108.9 1170.6,1123.1 1179.9,1136.4 1189.0,1149.0 1197.7,1160.8 1206.1,1171.7 1210.7,1177.8 1215.2,1183.7 1219.4,1189.0 1223.0,1193.7 1236.7,1210.9 1250.3,1228.2 1264.0,1245.4 1264.0,1245.4 1267.1,1248.1 1271.1,1249.3 1275.2,1249.0 1278.8,1247.1 1281.5,1244.0 1282.8,1240.0 1282.4,1235.9 1280.5,1232.2 Z"/>
    </g>
    <g id="SH"><g transform="translate(0.000000,1600.000000) scale(0.100000,-0.100000)">
      <path d="M8622 14977 c-51 -19 -99 -62 -105 -96 -6 -27 0 -41 38 -90 39 -51
130 -131 149 -131 3 0 57 -24 119 -54 61 -29 128 -57 147 -61 49 -11 124 -50
200 -105 36 -25 83 -57 105 -70 22 -13 51 -33 65 -45 14 -13 56 -44 94 -70 83
-58 263 -201 273 -219 5 -7 49 -48 99 -92 50 -44 133 -126 184 -182 52 -56 98
-102 101 -102 4 0 24 -24 45 -52 21 -29 61 -80 89 -113 29 -33 64 -78 78 -100
15 -22 41 -61 59 -86 357 -504 562 -1017 673 -1689 83 -495 85 -1293 5 -2055
-4 -44 -13 -136 -19 -205 -7 -69 -21 -195 -32 -280 -12 -85 -25 -200 -30 -255
-5 -55 -13 -143 -18 -195 -31 -309 -41 -636 -32 -1145 5 -370 72 -790 180
-1135 128 -410 425 -986 713 -1385 276 -381 438 -572 438 -515 0 6 -15 35 -34
64 -152 237 -256 523 -256 700 0 154 58 354 156 541 115 219 125 375 24 375
-33 0 -150 -34 -209 -61 -51 -23 -191 -43 -301 -43 -93 0 -133 19 -211 100
-230 242 -252 694 -48 990 96 139 270 235 594 324 193 53 452 186 533 274 119
129 108 230 -32 299 -124 61 -236 58 -514 -14 -86 -22 -193 -50 -237 -61 -294
-74 -532 75 -552 347 -21 274 137 725 340 973 156 191 392 405 658 597 288
209 539 454 617 603 86 165 97 347 25 432 -113 135 -234 85 -608 -250 -171
-153 -242 -206 -315 -237 -158 -65 -289 -16 -358 136 -88 195 5 690 197 1056
58 109 211 366 236 395 19 22 201 323 229 378 90 177 174 544 163 712 -13 208
-128 320 -272 266 -126 -49 -189 -206 -260 -646 -43 -271 -108 -518 -159 -605
-28 -48 -95 -111 -132 -125 -54 -21 -148 -12 -192 18 -108 73 -137 174 -147
519 -11 395 -33 460 -275 783 -114 153 -216 311 -361 564 -87 151 -116 186
-252 304 -341 295 -820 591 -1197 740 -188 75 -389 108 -468 79z"/>
      <path d="M6722 14353 c-12 -10 -37 -65 -57 -122 -19 -58 -49 -127 -65 -155
-16 -29 -32 -75 -36 -106 -4 -30 -11 -62 -15 -72 -9 -17 -74 -262 -89 -334 -5
-22 -18 -64 -29 -94 -11 -29 -23 -74 -27 -99 -3 -25 -13 -57 -21 -70 -9 -13
-19 -58 -24 -99 -5 -41 -12 -79 -17 -86 -5 -6 -12 -45 -16 -86 -4 -41 -11 -79
-16 -84 -6 -6 -10 -35 -11 -66 0 -30 -5 -82 -10 -115 -5 -33 -13 -96 -19 -140
-5 -44 -14 -111 -20 -150 -53 -336 -74 -1289 -36 -1587 9 -69 16 -147 16 -173
0 -184 112 -833 211 -1225 82 -324 250 -839 332 -1020 14 -30 69 -154 122
-275 53 -121 111 -245 129 -275 18 -30 59 -108 91 -172 44 -90 62 -118 77
-118 14 0 27 -16 45 -57 15 -32 36 -67 48 -79 14 -12 24 -38 28 -68 4 -29 22
-73 44 -110 60 -99 213 -327 253 -376 20 -25 64 -85 98 -135 34 -49 80 -112
102 -140 22 -27 66 -84 97 -125 32 -41 105 -129 163 -195 738 -839 1484 -1457
2455 -2035 248 -148 680 -383 801 -436 33 -14 118 -54 189 -89 154 -75 263
-115 311 -115 60 0 37 29 -76 95 -207 120 -288 182 -442 338 -102 103 -151
160 -159 185 -7 21 -28 66 -47 101 -41 75 -62 169 -55 249 3 35 -1 80 -10 117
-9 33 -18 87 -22 120 -35 329 -125 483 -243 421 -39 -21 -142 -130 -198 -211
-119 -172 -212 -235 -345 -235 -393 0 -795 436 -889 964 -42 239 11 433 235
866 13 25 39 86 58 135 103 268 116 389 58 527 -52 125 -97 144 -272 121 -87
-11 -274 -229 -464 -539 -109 -179 -242 -326 -333 -371 -94 -46 -210 -41 -322
13 -158 77 -281 205 -373 390 -117 235 -156 389 -163 649 -3 102 -10 190 -16
203 -9 17 -9 35 0 70 6 26 14 64 18 85 3 20 14 47 24 60 9 12 23 40 30 62 34
106 123 262 310 540 301 451 391 665 327 785 -50 94 -134 99 -295 19 -138 -70
-282 -218 -373 -387 -79 -147 -240 -336 -320 -377 -51 -27 -159 -32 -215 -10
-75 29 -163 124 -203 219 -95 230 -60 596 86 896 77 157 109 195 388 445 335
300 427 414 479 596 43 148 -58 260 -207 229 -81 -16 -159 -69 -273 -183 -96
-97 -138 -153 -243 -327 -130 -214 -256 -375 -338 -431 -123 -85 -298 -31
-338 104 -32 107 -9 310 59 535 53 174 55 353 6 602 -52 270 -48 359 34 710
65 273 91 501 102 860 5 187 39 519 59 572 13 35 65 370 71 455 13 198 -38
349 -141 413 -40 24 -47 25 -73 3z"/>
      <path d="M2440 11533 c-47 -18 -52 -31 -45 -148 5 -93 3 -122 -14 -189 -26
-97 -26 -124 -2 -201 10 -33 26 -106 35 -163 9 -57 23 -129 31 -160 8 -31 15
-87 15 -125 0 -45 7 -84 19 -115 11 -26 27 -105 36 -177 10 -71 23 -150 31
-175 8 -25 14 -70 14 -100 0 -34 8 -72 21 -100 12 -25 25 -70 29 -100 4 -30
20 -100 35 -155 26 -98 47 -185 66 -275 5 -25 15 -61 23 -80 8 -19 22 -64 31
-100 10 -36 33 -110 52 -165 19 -55 46 -140 62 -190 51 -163 183 -506 258
-670 296 -644 521 -1050 819 -1475 52 -74 113 -162 136 -195 23 -33 58 -80 78
-105 20 -25 78 -99 129 -164 201 -260 509 -595 794 -863 287 -270 367 -338
726 -613 159 -122 531 -366 766 -502 72 -42 153 -89 180 -105 198 -116 748
-375 1072 -504 331 -132 387 -151 903 -314 296 -94 975 -249 1289 -295 41 -6
77 -13 81 -15 18 -11 450 -69 720 -96 336 -34 481 -45 753 -55 177 -7 177 -7
177 23 0 34 22 28 -225 54 -130 13 -353 68 -484 119 -350 137 -506 277 -664
596 -96 196 -136 263 -166 278 -42 21 -133 26 -208 10 -37 -8 -91 -14 -118
-14 -72 0 -92 -17 -100 -88 -38 -342 -113 -422 -397 -422 -300 0 -643 145
-886 374 -140 131 -278 385 -318 585 -17 86 -16 105 6 301 5 41 14 167 20 279
15 267 19 261 -151 217 -141 -37 -399 -129 -443 -159 -21 -15 -44 -27 -50 -27
-28 0 -74 -60 -81 -106 -30 -205 -146 -392 -284 -461 -82 -41 -269 -41 -378
-1 -298 110 -598 431 -758 810 -112 264 -137 528 -84 888 16 110 48 309 69
425 21 113 31 174 56 330 15 90 15 90 -11 113 -19 16 -39 22 -75 22 -27 0
-101 14 -165 30 -138 35 -154 36 -188 10 -37 -30 -62 -105 -124 -379 -59 -262
-69 -295 -119 -381 -172 -295 -502 -214 -688 167 -150 307 -172 641 -57 887
17 35 43 97 60 137 16 41 50 118 75 172 25 55 46 101 46 104 0 3 8 17 19 31
10 15 21 40 25 56 4 16 16 41 27 54 10 14 19 34 19 46 0 32 48 194 71 238 10
20 19 56 19 78 0 22 7 76 16 118 57 272 -64 439 -251 347 -76 -37 -161 -137
-226 -267 -57 -114 -98 -258 -150 -528 -57 -299 -110 -440 -199 -529 -81 -81
-148 -89 -242 -30 -112 72 -212 302 -238 549 -24 229 -91 409 -214 578 -59 80
-141 220 -154 262 -36 112 -62 296 -72 495 -20 419 -47 546 -154 724 -114 190
-218 459 -246 636 -36 230 -149 572 -241 729 -90 154 -180 232 -239 209z"/>
    </g></g>
    <linearGradient id="fillW" x1="512" y1="170" x2="512" y2="830" gradientUnits="userSpaceOnUse">
      <stop offset="0" stop-color="#FFFFFF"/><stop offset="0.7" stop-color="#F4F8F5"/><stop offset="1" stop-color="#E8F0EA"/>
    </linearGradient>
    <linearGradient id="vBotW" x1="0" y1="0" x2="0" y2="1" gradientUnits="objectBoundingBox">
      <stop offset="0" stop-color="#1E1E1E"/><stop offset="0.45" stop-color="#6E6E6E"/><stop offset="1" stop-color="#FFFFFF"/>
    </linearGradient>
    <mask id="carve">
      <g transform="translate(150.5,119.1) scale(0.5089)"><use href="#LV" xlink:href="#LV" fill="#FFFFFF"/><use href="#MD" xlink:href="#MD" fill="#000000"/></g>
    </mask>
    <mask id="bottomLeaf">
      <rect width="1024" height="1024" fill="#000"/>
      <g transform="translate(150.5,119.1) scale(0.5089)"><use href="#LV" xlink:href="#LV" fill="url(#vBotW)"/></g>
    </mask>
    <filter id="f6" x="-40%" y="-40%" width="180%" height="180%"><feGaussianBlur stdDeviation="6"/></filter>
    <filter id="f10" x="-50%" y="-50%" width="200%" height="200%"><feGaussianBlur stdDeviation="10"/></filter>
    <filter id="f24" x="-60%" y="-60%" width="220%" height="220%"><feGaussianBlur stdDeviation="24"/></filter>
    <mask id="lvOnly">
      <g transform="translate(150.5,119.1) scale(0.5089)"><use href="#LV" xlink:href="#LV" fill="#FFFFFF"/></g>
    </mask>
  </defs>

  <rect width="1024" height="1024" fill="url(#bg)"/>
  <rect width="1024" height="1024" fill="url(#key)"/>
  <rect width="1024" height="1024" fill="url(#halo)"/>

  <!-- two-layer shadow -->
  <g transform="translate(0,18)" opacity="0.30" filter="url(#f24)"><g transform="translate(150.5,119.1) scale(0.5089)"><use href="#LV" xlink:href="#LV" fill="#081E3E"/></g></g>
  <g transform="translate(0,6)" opacity="0.20" filter="url(#f10)"><g transform="translate(150.5,119.1) scale(0.5089)"><use href="#LV" xlink:href="#LV" fill="#081E3E"/></g></g>

  <!-- carve lips under the glyph -->
  <g mask="url(#lvOnly)"><g transform="translate(0,3)"><g transform="translate(150.5,119.1) scale(0.5089)"><use href="#MD" xlink:href="#MD" fill="#071A38" fill-opacity="0.45"/></g></g></g>

  <!-- white liquid-glass leaves, midribs carved through -->
  <g mask="url(#carve)">
    <g transform="translate(150.5,119.1) scale(0.5089)"><use href="#LV" xlink:href="#LV" fill="url(#fillW)"/></g>
    <!-- overlap depth shading from the reference -->
    <g transform="translate(150.5,119.1) scale(0.5089)"><use href="#SH" xlink:href="#SH" fill="#071A38" fill-opacity="0.12"/></g>
    <!-- bottom inner shade -->
    <g mask="url(#bottomLeaf)">
      <g transform="translate(150.5,119.1) scale(0.5089)"><use href="#LV" xlink:href="#LV" fill="none" stroke="#071A38" stroke-opacity="0.22" stroke-width="18" filter="url(#f6)"/></g>
    </g>
  </g>
</svg>